<svg width="33" height="33" viewBox="0 0 33 33" fill="none" xmlns="http://www.w3.org/2000/svg">
<g id="Twitter - Negative" clip-path="url(#clip0_1_1527)">
<path id="Vector" d="M10.7247 29.4303C22.9764 29.4303 29.6795 19.2774 29.6795 10.4754C29.6795 10.19 29.6732 9.89824 29.6605 9.61281C30.9645 8.66981 32.0898 7.50178 32.9835 6.16358C31.7691 6.70389 30.4797 7.05677 29.1594 7.21015C30.5496 6.37685 31.5905 5.06778 32.0892 3.5256C30.7814 4.30067 29.3511 4.84741 27.8598 5.14239C26.8549 4.0747 25.5264 3.36776 24.0795 3.13087C22.6326 2.89399 21.1479 3.14034 19.855 3.83186C18.5622 4.52337 17.5331 5.62153 16.927 6.95654C16.3209 8.29155 16.1714 9.78906 16.5017 11.2175C13.8536 11.0847 11.2629 10.3967 8.89768 9.1984C6.53246 8.00005 4.44548 6.31803 2.77202 4.26137C1.92148 5.7278 1.66122 7.46306 2.04412 9.11449C2.42702 10.7659 3.42436 12.2096 4.83344 13.1521C3.77559 13.1185 2.74091 12.8337 1.81489 12.3212V12.4037C1.81394 13.9426 2.34596 15.4343 3.3205 16.6253C4.29505 17.8163 5.65197 18.6331 7.16062 18.9368C6.18069 19.2049 5.15221 19.2439 4.15476 19.0509C4.58047 20.3744 5.40875 21.5319 6.524 22.362C7.63925 23.1921 8.98583 23.6533 10.3758 23.6812C8.01604 25.5348 5.10105 26.5402 2.10032 26.5355C1.56816 26.5346 1.03653 26.502 0.50827 26.4378C3.55669 28.3935 7.10282 29.4322 10.7247 29.4303Z" fill="#FBFBFB"/>
</g>
<defs>
<clipPath id="clip0_1_1527">
<rect width="32.4752" height="32.4752" fill="white" transform="translate(0.50827 -0.00012207)"/>
</clipPath>
</defs>
</svg>
